<?xml version="1.0" encoding="utf-8"?>
<!-- Generator: Adobe Illustrator 21.1.0, SVG Export Plug-In . SVG Version: 6.00 Build 0)  -->
<svg version="1.1" id="Layer_1" xmlns="http://www.w3.org/2000/svg" xmlns:xlink="http://www.w3.org/1999/xlink" x="0px" y="0px"
	 viewBox="0 0 68 68" style="enable-background:new 0 0 68 68;" xml:space="preserve">
<style type="text/css">
	.st0{fill:#0093C9;stroke:#231F20;}
	.st1{fill:#FFFFFF;}
	.st2{fill:none;stroke:#231F20;}
	.st3{fill:#231F20;}
</style>
<g>
	<g>
		<rect x="0.5" y="0.5" class="st0" width="67" height="67"/>
	</g>
	<g>
		<rect x="0.5" y="48.4" class="st1" width="67" height="19.1"/>
	</g>
	<g>
		<g>
			<polygon class="st1" points="62.9,7.5 58.8,7.5 58.8,3.5 52.4,3.5 52.4,7.5 48.4,7.5 48.4,13.9 52.4,13.9 52.4,18 58.8,18 
				58.8,13.9 62.9,13.9 			"/>
		</g>
	</g>
	<g>
		<path class="st1" d="M32.4,17.2c-3.2,0-5.6,0.8-7.4,2.4c0.6-6.1,2.6-8.9,6.3-8.9c2.6,0,4.1,1.1,4.3,3.2l0.1,0.5h9.4L45,13.8
			c-0.8-4.2-1.6-5.5-4.1-7.7c-2.4-2.2-7.7-2.7-9-2.7c-16.2,0-16.2,15.9-16.2,21.1c0,13.6,5.2,20.2,15.8,20.2
			c8.4,0,14.3-6.1,14.3-14.8C45.8,23.6,41.2,17.2,32.4,17.2z M30.9,24.5c2.5,0,5.5,1.6,5.5,6c0,4.3-2,6.9-5.3,6.9
			c-3.6,0-6-2.7-6-6.7C25.1,25,29.5,24.5,30.9,24.5z"/>
	</g>
	<g>
		<rect x="0.5" y="0.5" class="st2" width="67" height="67"/>
	</g>
	<g>
		<path class="st3" d="M13.3,50.8c-0.1,0.6-0.3,1.2-0.5,1.8c-0.2,0.6-0.4,1.2-0.6,1.8v10.3h-1.6v-7.4l-0.2,0.4l-1.5-0.7
			c0.7-1,1.3-2,1.8-3c0.5-1.1,0.8-2.2,1-3.4L13.3,50.8z M24.1,62.6l-1.3,1.1c-0.7-0.5-1.4-1-2-1.5c-0.6-0.5-1.2-1.1-1.8-1.8v4.3
			h-1.7v-4.3c-0.5,0.6-1.1,1.2-1.8,1.8c-0.7,0.6-1.4,1.1-2.1,1.5l-1.1-1.3c0.9-0.4,1.6-1,2.4-1.6c0.8-0.6,1.4-1.2,2-1.9h-3.9v-1.6
			h4.5v-1h-3.6c-0.1,0-0.1-0.1-0.2-0.1c0,0-0.1-0.1-0.1-0.1V51c0-0.1,0-0.1,0.1-0.1c0,0,0.1,0,0.2,0h9.1c0,0,0.1,0,0.1,0
			c0,0,0.1,0,0.1,0.1v5.1c0,0-0.1,0.1-0.1,0.1c0,0-0.1,0.1-0.1,0.1H19v1h4.6v1.6h-4.1c0.6,0.8,1.3,1.5,2.1,2.1
			C22.4,61.6,23.2,62.2,24.1,62.6z M21.3,54.6v-2.2h-6.2v2.2v0.1h6.2V54.6z"/>
		<path class="st3" d="M31.2,54.4h-4.6v-1.5h4.6V54.4z M31.2,63.1c0,0.2,0,0.3-0.1,0.4c-0.1,0.1-0.2,0.1-0.4,0.2h-2.6v1h-1.5v-5.1
			c0-0.2,0-0.3,0.1-0.4c0.1-0.1,0.2-0.1,0.4-0.1h3.5c0.2,0,0.3,0,0.4,0.1c0.1,0.1,0.1,0.2,0.1,0.4V63.1z M40.7,52.4h-1.8V53h-1.5
			v-0.6H35V53h-1.2l0.4,0.2v0.1h1.9c0-0.1,0.1-0.3,0.2-0.4c0.1-0.1,0.2-0.3,0.2-0.4l1.2,0.9h2.8l-0.1,1.2h-3.2v0.5h3.2v1.2h-3.2v0.5
			h3.2V58h-3.2v0.5h3.4v1.1h-7.9c-0.2,0-0.3,0-0.4-0.1c-0.1-0.1-0.1-0.2-0.1-0.4V56c-0.2,0.1-0.4,0.2-0.5,0.3
			c-0.2,0.1-0.3,0.2-0.4,0.3l-0.7-0.7v0.6H27V55h3.8v0.4c0.5-0.4,0.9-0.8,1.2-1.2c0.3-0.5,0.6-1,0.9-1.6l0.7,0.4v-0.5h-1.8v-1.2h1.8
			v-0.6H35v0.6h2.4v-0.6h1.5v0.6h1.8V52.4z M30.8,52.4H27v-1.6h3.8V52.4z M30.8,58.4H27v-1.5h3.8V58.4z M29.8,61.9v-1.1
			c0-0.1-0.1-0.2-0.1-0.2c0,0-0.1,0-0.1,0h-1.1c-0.1,0-0.1,0-0.2,0c0,0-0.1,0.1-0.1,0.2v1.3h1.3c0,0,0.1-0.1,0.1-0.1
			C29.7,62,29.7,62,29.8,61.9z M41.1,60.8v0.1c-0.3,0.2-0.6,0.5-0.8,0.8c-0.2,0.2-0.5,0.5-0.8,0.8c-0.2,0.2-0.4,0.3-0.7,0.4
			c-0.2,0.2-0.4,0.3-0.7,0.4c0.4,0.1,0.9,0.1,1.3,0.2c0.4,0,0.9,0.1,1.3,0.1l-0.4,1.5c-0.7,0-1.4-0.1-2-0.2
			c-0.6-0.1-1.3-0.3-1.9-0.4c-0.1-0.1-0.1-0.1-0.2-0.1c-0.1,0-0.1,0-0.2,0c-0.7,0.2-1.4,0.3-1.9,0.5c-0.5,0.1-1.2,0.2-1.9,0.2h-0.7
			l-0.4-1.5c0.5,0,1-0.1,1.4-0.1c0.5,0,1-0.1,1.4-0.1c-0.2-0.2-0.4-0.4-0.7-0.5c-0.2-0.2-0.4-0.3-0.7-0.4l0.9-1.2
			c0.3,0.3,0.7,0.5,1.1,0.8c0.4,0.2,0.8,0.5,1.2,0.7c0.4-0.2,0.8-0.5,1.3-0.7c0.4-0.2,0.9-0.4,1.3-0.7h-6.2v-1.3H40L41.1,60.8z
			 M35.7,55.1v-0.5h-1.8c-0.1,0-0.1,0-0.1,0c0,0,0,0,0,0.1v0.4H35.7z M35.7,58.5V58h-1.9v0.2c0,0,0,0.1,0,0.1c0,0,0,0.1,0.1,0.1
			H35.7z M35.7,56.8v-0.5h-1.9v0.5H35.7z"/>
		<path class="st3" d="M50.1,58.3l-1.5,0.4l-0.1-0.7L47.4,58v6.8h-1.5v-6.6l-2.1,0.4c-0.1-0.3-0.1-0.5-0.2-0.8
			c-0.1-0.3-0.1-0.5-0.2-0.8l1.1-0.1c0.2-0.2,0.3-0.4,0.5-0.6c0.2-0.2,0.3-0.4,0.5-0.6c-0.4-0.4-0.8-0.7-1.2-1
			c-0.4-0.3-0.8-0.5-1.2-0.7l0.7-1.5c0.1,0,0.2,0.1,0.4,0.2c0.2,0.1,0.3,0.2,0.4,0.2c0.2-0.5,0.5-1,0.7-1.4c0.2-0.5,0.5-1,0.7-1.4
			l1.3,0.7c-0.3,0.5-0.6,1-0.9,1.5c-0.3,0.5-0.6,1-0.9,1.5c0.1,0,0.2,0.1,0.4,0.2c0.1,0.1,0.2,0.2,0.4,0.2c0.2-0.3,0.3-0.7,0.5-1
			c0.2-0.3,0.3-0.7,0.5-1l1.5,0.5c-0.2,0.6-0.5,1.2-1,1.9c-0.5,0.7-1,1.3-1.3,1.8l1.2-0.1c-0.1-0.1-0.1-0.2-0.1-0.4
			c0-0.1-0.1-0.2-0.1-0.4l1.3-0.5c0.2,0.5,0.4,1,0.5,1.5C49.7,57.2,49.9,57.7,50.1,58.3z M45.6,59.4c-0.1,0.8-0.3,1.6-0.4,2.4
			c-0.1,0.8-0.3,1.6-0.4,2.4l-1.3-0.4c0.1-0.6,0.3-1.4,0.4-2.3c0.2-0.9,0.3-1.7,0.3-2.3L45.6,59.4z M58.2,63.9L57,65
			c-0.4-0.3-0.9-0.7-1.3-1c-0.4-0.4-0.9-0.8-1.2-1.2c-0.5,0.4-1,0.9-1.5,1.2c-0.5,0.3-1.1,0.6-1.8,1l-1.1-1.1
			c-0.1,0.1-0.1,0.2-0.2,0.4c-0.1,0.1-0.1,0.2-0.2,0.4l-1.6-0.4c0.2-0.3,0.3-0.6,0.4-1c0.2-0.4,0.3-0.7,0.4-1l-0.9,0.1l-0.6-3.2
			l1.5-0.4l0.4,2.4c0.4-1.2,0.7-2.4,0.9-3.6c0.2-1.2,0.3-2.4,0.3-3.6v-1.5H49V51h7.3c0.1,0,0.2,0.1,0.4,0.2c0.1,0.1,0.2,0.3,0.2,0.4
			c0,0.2-0.2,0.8-0.4,1.6c-0.2,0.8-0.3,1.3-0.4,1.7H57l1,0.7c-0.1,1.2-0.4,2.3-0.8,3.3c-0.4,0.9-1,1.9-1.6,2.9
			c0.4,0.4,0.8,0.7,1.3,1C57.3,63.2,57.7,63.5,58.2,63.9z M53.5,61.5c-0.4-0.6-0.8-1.3-1-1.9c-0.3-0.6-0.5-1.3-0.7-2.1
			c0,0.7-0.2,1.8-0.6,3.1c-0.4,1.3-0.7,2.3-1,3.1c0.6-0.3,1.2-0.7,1.7-1C52.5,62.3,53,62,53.5,61.5z M55,52.7c0-0.1-0.1-0.1-0.1-0.1
			c0,0-0.1,0-0.1,0h-2.7L52,54.9h2.6L55,52.7z M56.3,56.4h-3.2c0.1,0.6,0.3,1.3,0.5,2c0.2,0.7,0.5,1.4,0.9,2c0.4-0.6,0.7-1.2,1-1.9
			C55.9,57.8,56.1,57.1,56.3,56.4z"/>
	</g>
</g>
</svg>
