<?xml version="1.0" encoding="utf-8"?>
<!-- Generator: Adobe Illustrator 21.1.0, SVG Export Plug-In . SVG Version: 6.00 Build 0)  -->
<svg version="1.1" id="Layer_1" xmlns="http://www.w3.org/2000/svg" xmlns:xlink="http://www.w3.org/1999/xlink" x="0px" y="0px"
	 viewBox="0 0 68 68" style="enable-background:new 0 0 68 68;" xml:space="preserve">
<style type="text/css">
	.st0{fill:#3FAE2A;stroke:#231F20;}
	.st1{fill:#FFFFFF;}
	.st2{fill:none;stroke:#231F20;}
	.st3{fill:#231F20;}
</style>
<g>
	<g>
		<rect x="0.5" y="0.5" class="st0" width="67" height="67"/>
	</g>
	<g>
		<rect x="0.5" y="48.4" class="st1" width="67" height="19.1"/>
	</g>
	<g>
		<polygon class="st1" points="64.4,7.7 60.7,7.7 60.7,4 54.8,4 54.8,7.7 51.1,7.7 51.1,13.6 54.8,13.6 54.8,17.3 60.7,17.3 
			60.7,13.6 64.4,13.6 		"/>
	</g>
	<g>
		<path class="st1" d="M32,5c-10.8,0-19.6,8.8-19.6,19.6S21.2,44.2,32,44.2s19.6-8.8,19.6-19.6S42.8,5,32,5z M32,36.6
			c-6.6,0-12-5.4-12-12s5.4-12,12-12c6.6,0,12,5.4,12,12S38.7,36.6,32,36.6z"/>
	</g>
	<g>
		<rect x="0.5" y="0.5" class="st2" width="67" height="67"/>
	</g>
	<g>
		<path class="st3" d="M23.9,58.2H10v-1.5h2.1c-0.2-0.3-0.4-0.6-0.5-0.9c-0.2-0.3-0.4-0.6-0.5-0.9l1.2-0.9c0.2,0.3,0.5,0.6,0.7,1
			c0.2,0.3,0.5,0.6,0.7,1l-1.1,0.6h2.1v-2.9h-4.1v-1.5h3c-0.1-0.1-0.2-0.2-0.3-0.3c-0.1-0.1-0.2-0.2-0.3-0.3l1.1-1.1
			c0.2,0.2,0.5,0.4,0.7,0.6c0.2,0.2,0.5,0.4,0.7,0.7L15,52.4h3.5c0.2-0.3,0.5-0.6,0.7-0.9c0.2-0.3,0.5-0.6,0.7-0.9l1.2,1
			c-0.1,0.1-0.2,0.3-0.3,0.4c-0.1,0.1-0.2,0.3-0.3,0.4h2.7v1.5h-3.9v2.9h0.7c0.2-0.5,0.5-1,0.7-1.4c0.2-0.5,0.5-1,0.7-1.4l1.3,0.7
			c-0.2,0.3-0.3,0.6-0.5,1c-0.2,0.3-0.3,0.7-0.5,1.1h2.1V58.2z M22.6,65.4H21v-0.7h-7.9v0.7h-1.5v-6.1c0-0.2,0-0.4,0.1-0.5
			c0.1-0.1,0.2-0.1,0.4-0.1h9.8c0.2,0,0.3,0,0.4,0.1c0.1,0.1,0.1,0.3,0.2,0.5V65.4z M21,61v-0.6c0-0.1-0.1-0.1-0.1-0.1
			c0,0-0.1,0-0.1,0h-7.4c-0.1,0-0.1,0-0.2,0c0,0-0.1,0-0.1,0.1V61H21z M21,63.1v-0.6h-7.9v0.6H21z M17.8,56.7v-2.9h-1.6v2.9H17.8z"
			/>
		<path class="st3" d="M41.3,62.2c0,0.4-0.2,0.6-0.5,0.9c-0.3,0.2-0.6,0.3-0.9,0.4l-1.1-0.1v-1v0.6h-1.3v-2.3h-1.1v2.3h-1.3v-2.3
			h-1.1v2.4h-1.5v-3.8c-0.1,0.5-0.3,1-0.5,1.5c-0.2,0.5-0.4,1-0.6,1.5l-1-0.6c0.4,0.7,0.8,1.2,1.4,1.5c0.6,0.2,1.3,0.4,2.1,0.4
			c1.2,0,2.4-0.1,3.6-0.1c1.2,0,2.4-0.1,3.6-0.1l-0.4,1.8h-7.4c-0.8-0.1-1.5-0.2-2.2-0.5c-0.7-0.2-1.2-0.7-1.6-1.3
			c-0.2,0.4-0.5,0.8-0.9,1.2c-0.4,0.4-0.9,0.6-1.3,0.8l-0.9-1.3c0.5-0.2,1-0.6,1.4-1c0.4-0.4,0.6-0.9,0.7-1.5v-2.2L28.5,59h-1.3
			v-1.6h2.7c0.1,0,0.2,0,0.2,0.1c0.1,0.1,0.1,0.2,0.1,0.3v2.9c0.3-0.6,0.5-1.3,0.7-1.8c0.1-0.5,0.2-1.1,0.2-1.8v-5.6
			c0-0.2,0-0.4,0.1-0.5c0.1-0.1,0.2-0.1,0.4-0.1c0.6,0,1.3,0,1.9,0.1c0.6,0,1.3,0,1.9,0.1c0.6,0,1.3-0.1,2-0.1
			c0.7,0,1.4-0.1,2.1-0.1l0.4,1.5c-0.7,0-1.4,0.1-2,0.1c-0.7,0-1.4,0.1-2,0.1l-3.2-0.1c-0.1,0-0.1,0-0.1,0.1c0,0.1,0,0.2,0,0.2V53
			h7.8c0.1,0,0.2,0,0.2,0.1c0.1,0.1,0.1,0.2,0.1,0.4v2.3c0,0.2,0,0.3-0.1,0.4c0,0.1-0.1,0.1-0.2,0.1h-7.8v0.4h0.1h8.1
			c0,0,0.1,0,0.2,0.1c0.1,0.1,0.1,0.2,0.2,0.3V62.2z M30.3,55.6l-1,1.3c-0.4-0.3-0.8-0.6-1.2-0.9c-0.4-0.3-0.8-0.5-1.2-0.7l0.7-1.5
			c0.4,0.2,0.9,0.4,1.3,0.7C29.4,55,29.9,55.3,30.3,55.6z M30.8,52.6l-1,1.3c-0.4-0.3-0.9-0.5-1.3-0.8c-0.4-0.3-0.9-0.5-1.3-0.7
			L28,51c0.5,0.2,1,0.4,1.4,0.7C29.9,52,30.4,52.3,30.8,52.6z M39.3,54.8v-0.4c0-0.1,0-0.1-0.1-0.1h-6.6v0.6h6.6L39.3,54.8
			L39.3,54.8z M34.9,59.4v-1.6h-1c-0.1,0-0.1,0-0.1,0.1v1.5H34.9z M37.4,59.4v-1.6h-1.1v1.6H37.4z M39.7,59.4V58
			c0-0.1,0-0.1-0.1-0.1c0,0,0,0-0.1,0h-0.9v1.6H39.7z M39.7,61.5v-0.9h-1v1.1c0,0,0.1,0.1,0.2,0.1c0.1,0,0.2,0.1,0.2,0.1l0.1-0.1
			c0.1,0,0.2,0,0.2-0.1C39.6,61.7,39.7,61.6,39.7,61.5z"/>
		<path class="st3" d="M50.5,58.6L49,58.9l-0.1-0.7l-1.1,0.1v6.8h-1.5v-6.6l-2.1,0.4c-0.1-0.3-0.1-0.5-0.2-0.8
			c-0.1-0.3-0.1-0.5-0.2-0.8l1.1-0.1c0.2-0.2,0.3-0.4,0.5-0.6c0.2-0.2,0.3-0.4,0.5-0.6c-0.4-0.4-0.8-0.8-1.2-1
			c-0.4-0.3-0.8-0.5-1.2-0.7l0.7-1.5c0.1,0,0.2,0.1,0.4,0.2c0.2,0.1,0.3,0.2,0.4,0.2c0.2-0.5,0.5-1,0.7-1.4c0.2-0.5,0.5-1,0.7-1.4
			l1.3,0.7c-0.3,0.5-0.6,1-0.9,1.5c-0.3,0.5-0.6,1-0.9,1.5c0.1,0,0.2,0.1,0.4,0.2c0.1,0.1,0.2,0.2,0.4,0.2c0.2-0.3,0.3-0.7,0.5-1
			c0.2-0.3,0.3-0.7,0.5-1l1.5,0.5c-0.2,0.6-0.5,1.2-1,1.9c-0.5,0.7-1,1.3-1.3,1.8l1.2-0.1c-0.1-0.1-0.1-0.2-0.1-0.4
			c0-0.1-0.1-0.2-0.1-0.4l1.3-0.5c0.2,0.5,0.4,1,0.5,1.5C50.1,57.5,50.3,58,50.5,58.6z M46,59.7c-0.1,0.8-0.3,1.6-0.4,2.4
			c-0.1,0.8-0.3,1.6-0.4,2.4L43.8,64c0.1-0.6,0.3-1.4,0.4-2.3c0.2-0.9,0.3-1.7,0.3-2.3L46,59.7z M58.6,64.2l-1.2,1.1
			c-0.4-0.3-0.9-0.7-1.3-1c-0.4-0.4-0.9-0.8-1.2-1.2c-0.5,0.4-1,0.9-1.5,1.2c-0.5,0.3-1.1,0.6-1.8,1l-1.1-1.1
			c-0.1,0.1-0.1,0.2-0.2,0.4c-0.1,0.1-0.1,0.2-0.2,0.4l-1.6-0.4c0.2-0.3,0.3-0.6,0.4-1c0.2-0.4,0.3-0.7,0.4-1l-0.9,0.1l-0.6-3.2
			l1.5-0.4l0.4,2.4c0.4-1.2,0.7-2.4,0.9-3.6c0.2-1.2,0.3-2.4,0.3-3.6v-1.5h-1.6v-1.6h7.3c0.1,0,0.2,0.1,0.4,0.2
			c0.1,0.1,0.2,0.3,0.2,0.4c0,0.2-0.2,0.8-0.4,1.6c-0.2,0.8-0.3,1.3-0.4,1.7h0.9l1,0.7c-0.1,1.2-0.4,2.3-0.8,3.3
			c-0.4,0.9-1,1.9-1.6,2.9c0.4,0.4,0.8,0.7,1.3,1C57.7,63.5,58.1,63.8,58.6,64.2z M53.9,61.8c-0.4-0.6-0.8-1.3-1-1.9
			c-0.3-0.6-0.5-1.3-0.7-2.1c0,0.7-0.2,1.8-0.6,3.1c-0.4,1.3-0.7,2.3-1,3.1c0.6-0.3,1.2-0.7,1.7-1C52.9,62.6,53.4,62.2,53.9,61.8z
			 M55.5,53c0-0.1-0.1-0.1-0.1-0.1c0,0-0.1,0-0.1,0h-2.7l-0.1,2.3H55L55.5,53z M56.7,56.7h-3.2c0.1,0.6,0.3,1.3,0.5,2
			c0.2,0.7,0.5,1.4,0.9,2c0.4-0.6,0.8-1.2,1-1.9C56.3,58.1,56.5,57.4,56.7,56.7z"/>
	</g>
</g>
</svg>
