<?xml version="1.0" encoding="utf-8"?>
<!-- Generator: Adobe Illustrator 21.1.0, SVG Export Plug-In . SVG Version: 6.00 Build 0)  -->
<svg version="1.1" id="Layer_1" xmlns="http://www.w3.org/2000/svg" xmlns:xlink="http://www.w3.org/1999/xlink" x="0px" y="0px"
	 viewBox="0 0 68 68" style="enable-background:new 0 0 68 68;" xml:space="preserve">
<style type="text/css">
	.st0{fill:#FF5000;}
	.st1{fill:#FFFFFF;}
	.st2{fill:none;stroke:#231F20;}
	.st3{fill:#231F20;}
</style>
<g>
	<g>
		<rect x="0.5" y="0.5" class="st0" width="67" height="67"/>
	</g>
	<g>
		<rect x="0.5" y="49.5" class="st1" width="67" height="18"/>
	</g>
	<g>
		<rect x="0.5" y="0.5" class="st2" width="67" height="67"/>
	</g>
	<g>
		<polygon class="st1" points="65.1,7.6 61.4,7.6 61.4,3.9 55.5,3.9 55.5,7.6 51.8,7.6 51.8,13.5 55.5,13.5 55.5,17.2 61.4,17.2 
			61.4,13.5 65.1,13.5 		"/>
	</g>
	<g>
		<g>
			<path class="st1" d="M13.6,4.8C13.5,6.7,12.5,11,4.8,11H3.2v6.5h9.1v26.8h8.6v-40h-7.3L13.6,4.8z"/>
			<path class="st1" d="M38.6,17.7c-3,0-4.8,0.7-6.1,1.5l1.1-6.7h15.6V5h-22l-2.8,22.5l7.7,0.4l0.2-0.3c1.2-2.2,3.2-2.5,4.6-2.5
				c3.7,0,5,3.3,5,6.4c0,4.1-2,6.7-5.1,6.7c-3.5,0-4.5-2.6-4.8-4.8l-0.1-0.5h-8.6l0,0.6c0.4,8.3,6.8,12,13,12
				c10.6,0,14.4-7.8,14.4-14.5C50.7,22.2,44.6,17.7,38.6,17.7z"/>
		</g>
	</g>
	<g>
		<path class="st3" d="M14.8,61.2C14.8,61.3,14.8,61.3,14.8,61.2c-0.1,0.1-0.2,0.1-0.2,0.1h-1.9v0.9h2.1v1.5h-2.1v2.1h-1.5v-2.1H8.7
			v-1.5h2.4v-0.9H9.1c-0.1,0-0.1,0-0.2-0.1c0,0-0.1,0-0.1-0.1v-6.3c0-0.1,0-0.1,0.1-0.1c0,0,0.1,0,0.2,0h2.1v-0.7H8.8v-1.5h2.3v-1.2
			h1.5v1.2h2.1v1.5h-2.1v0.7h1.9c0.1,0,0.1,0,0.2,0c0,0,0.1,0,0.1,0.1V61.2z M11.1,57.4V56h-0.7h-0.1l0.1,0.1v1.2H11.1z M11.1,60.1
			v-1.3h-0.7V60h-0.1l0.1,0.1H11.1z M13.3,57.4v-1.2V56h-0.7v1.3H13.3z M13.3,58.8h-0.7v1.3h0.7V60V58.8z M23.3,53.9l-1.2,0.6
			l-0.2-0.5h-2.2v0.6h2.4c0.2,0,0.3,0,0.4,0.1c0.1,0.1,0.1,0.3,0.2,0.5v9.4c0,0.5-0.2,0.9-0.5,1.1c-0.3,0.2-0.7,0.4-1.2,0.4
			c-0.2,0-0.3-0.1-0.5-0.1c-0.2-0.1-0.4-0.1-0.5-0.1L19.8,64c0.2,0.1,0.3,0.2,0.5,0.2c0.2,0.1,0.3,0.1,0.5,0.1
			c0-0.1,0.1-0.2,0.1-0.2c0-0.1,0.1-0.2,0.1-0.2V62h-1.5v3.6h-1.5V62h-1.5v3.6h-1.6V55.3c0-0.2,0-0.4,0.1-0.5
			c0.1-0.1,0.3-0.1,0.5-0.1h2.4v-0.6h-2.9v-1.5h2.9v-1.1h1.5v1.1H21c-0.1-0.1-0.2-0.2-0.2-0.4c-0.1-0.1-0.2-0.2-0.2-0.4l1.2-0.7
			c0.3,0.4,0.5,0.9,0.8,1.3C22.8,52.9,23.1,53.4,23.3,53.9z M18.2,57.6v-1.3h-1.3h-0.1v1.3H18.2z M18.2,60.5v-1.5h-1.5v1.5H18.2z
			 M21.1,57.6v-1.3H21h-1.3v1.3H21.1z M21.1,60.5v-1.5h-1.5v1.5H21.1z"/>
		<path class="st3" d="M30.2,64.7h-2.3V56c-0.9,0.8-1.9,1.4-3,1.8v-2.1c0.6-0.2,1.3-0.6,2-1.1c0.7-0.6,1.2-1.2,1.5-1.9h1.9V64.7z"/>
		<path class="st3" d="M33.8,61.6l2.3-0.2c0.1,0.5,0.3,0.9,0.6,1.2c0.3,0.3,0.7,0.5,1.1,0.5c0.5,0,0.9-0.2,1.2-0.6
			c0.3-0.4,0.5-1,0.5-1.8c0-0.7-0.2-1.3-0.5-1.7c-0.3-0.4-0.8-0.6-1.3-0.6c-0.7,0-1.3,0.3-1.8,0.9L34,59.1l1.2-6.3h6.2v2.2H37
			L36.6,57c0.5-0.3,1.1-0.4,1.6-0.4c1,0,1.9,0.4,2.6,1.1c0.7,0.8,1.1,1.7,1.1,2.9c0,1-0.3,1.9-0.9,2.7c-0.8,1.1-1.9,1.6-3.3,1.6
			c-1.1,0-2-0.3-2.7-0.9C34.3,63.4,33.9,62.6,33.8,61.6z"/>
		<path class="st3" d="M51.2,59.2l-1.5,0.4l-0.1-0.7l-1.1,0.1v6.8h-1.5v-6.6L45,59.5c-0.1-0.3-0.1-0.5-0.2-0.8
			c-0.1-0.3-0.1-0.5-0.2-0.8l1.1-0.1c0.2-0.2,0.3-0.4,0.5-0.6c0.2-0.2,0.3-0.4,0.5-0.6c-0.4-0.4-0.8-0.7-1.2-1
			c-0.4-0.3-0.8-0.5-1.2-0.7l0.7-1.5c0.1,0,0.2,0.1,0.4,0.2c0.2,0.1,0.3,0.2,0.4,0.2c0.2-0.5,0.5-1,0.7-1.4c0.2-0.5,0.5-1,0.7-1.4
			l1.3,0.7c-0.3,0.5-0.6,1-0.9,1.5c-0.3,0.5-0.6,1-0.9,1.5c0.1,0,0.2,0.1,0.4,0.2c0.1,0.1,0.2,0.2,0.4,0.2c0.2-0.3,0.3-0.7,0.5-1
			c0.2-0.3,0.3-0.7,0.5-1l1.5,0.5c-0.2,0.6-0.5,1.2-1,1.9c-0.5,0.7-1,1.3-1.3,1.8l1.2-0.1c-0.1-0.1-0.1-0.2-0.1-0.4
			c0-0.1-0.1-0.2-0.1-0.4l1.3-0.5c0.2,0.5,0.4,1,0.5,1.5C50.8,58.1,51,58.6,51.2,59.2z M46.7,60.3c-0.1,0.8-0.3,1.6-0.4,2.4
			c-0.1,0.8-0.3,1.6-0.4,2.4l-1.3-0.4c0.1-0.6,0.3-1.4,0.4-2.3c0.2-0.9,0.3-1.7,0.3-2.3L46.7,60.3z M59.3,64.8l-1.2,1.1
			c-0.4-0.3-0.9-0.7-1.3-1c-0.4-0.4-0.9-0.8-1.2-1.2c-0.5,0.4-1,0.9-1.5,1.2c-0.5,0.3-1.1,0.6-1.8,1l-1.1-1.1
			c-0.1,0.1-0.1,0.2-0.2,0.4c-0.1,0.1-0.1,0.2-0.2,0.4l-1.6-0.4c0.2-0.3,0.3-0.6,0.4-1c0.2-0.4,0.3-0.7,0.4-1l-0.9,0.1l-0.6-3.2
			l1.5-0.4l0.4,2.4c0.4-1.2,0.7-2.4,0.9-3.6c0.2-1.2,0.3-2.4,0.3-3.6v-1.5h-1.6v-1.6h7.3c0.1,0,0.2,0.1,0.4,0.2
			c0.1,0.1,0.2,0.3,0.2,0.4c0,0.2-0.2,0.8-0.4,1.6c-0.2,0.8-0.3,1.3-0.4,1.7h0.9l1,0.7c-0.1,1.2-0.4,2.3-0.8,3.3
			c-0.4,0.9-1,1.9-1.6,2.9c0.4,0.4,0.8,0.7,1.3,1C58.4,64.1,58.9,64.4,59.3,64.8z M54.6,62.5c-0.4-0.6-0.8-1.3-1-1.9
			c-0.3-0.6-0.5-1.3-0.7-2.1c0,0.7-0.2,1.8-0.6,3.1c-0.4,1.3-0.7,2.3-1,3.1c0.6-0.3,1.2-0.7,1.7-1C53.6,63.2,54.1,62.9,54.6,62.5z
			 M56.2,53.6c0-0.1-0.1-0.1-0.1-0.1c0,0-0.1,0-0.1,0h-2.7l-0.1,2.3h2.6L56.2,53.6z M57.4,57.4h-3.2c0.1,0.6,0.3,1.3,0.5,2
			c0.2,0.7,0.5,1.4,0.9,2c0.4-0.6,0.7-1.2,1-1.9C57,58.7,57.2,58,57.4,57.4z"/>
	</g>
</g>
</svg>
