<?xml version="1.0" encoding="utf-8"?>
<!-- Generator: Adobe Illustrator 21.1.0, SVG Export Plug-In . SVG Version: 6.00 Build 0)  -->
<svg version="1.1" id="Layer_1" xmlns="http://www.w3.org/2000/svg" xmlns:xlink="http://www.w3.org/1999/xlink" x="0px" y="0px"
	 viewBox="0 0 68 68" style="enable-background:new 0 0 68 68;" xml:space="preserve">
<style type="text/css">
	.st0{fill:#FFCE00;}
	.st1{fill:#FFFFFF;}
	.st2{fill:none;stroke:#231F20;}
	.st3{fill:#231F20;}
</style>
<g>
	<g>
		<rect x="0.5" y="0.4" class="st0" width="67" height="67.1"/>
	</g>
	<g>
		<rect x="0.5" y="48.9" class="st1" width="67" height="18.6"/>
	</g>
	<g>
		<rect x="0.5" y="0.4" class="st2" width="67" height="67.1"/>
	</g>
	<g>
		<polygon class="st1" points="64.8,7.6 61.1,7.6 61.1,3.9 55.2,3.9 55.2,7.6 51.5,7.6 51.5,13.5 55.2,13.5 55.2,17.2 61.1,17.2 
			61.1,13.5 64.8,13.5 		"/>
	</g>
	<g>
		<g>
			<path class="st1" d="M13.7,5.2c-0.1,1.9-1.2,6.2-8.8,6.2H3.3v6.5h9.1v26.8H21V4.6h-7.3L13.7,5.2z"/>
			<path class="st1" d="M34.4,36.8c1-1.3,3.1-2.8,6.5-5.2l1.4-1c4-2.8,8.2-6.3,8.2-13.1c0-7.7-5.5-12.9-13.7-12.9
				c-3.9,0-13,1.4-13,14.3v0.6h8.4l0-0.6c0.1-3.4,0.5-6.7,4.9-6.7c3.2,0,4.7,2.6,4.7,5c0,4-2.5,5.9-9.1,10.8l-0.3,0.2
				c-8.5,6.3-8.8,11.4-9.1,15.9l0,0.6h27.2v-7.9H34.4z"/>
		</g>
	</g>
	<g>
		<path class="st3" d="M14.8,60.8C14.8,60.9,14.8,60.9,14.8,60.8c-0.1,0.1-0.2,0.1-0.2,0.1h-1.9v0.9h2.1v1.5h-2.1v2.1h-1.5v-2.1H8.7
			v-1.5h2.4v-0.9H9.1c-0.1,0-0.1,0-0.2-0.1c0,0-0.1,0-0.1-0.1v-6.3c0-0.1,0-0.1,0.1-0.1c0,0,0.1,0,0.2,0h2.1v-0.7H8.8v-1.5h2.3V51
			h1.5v1.2h2.1v1.5h-2.1v0.7h1.9c0.1,0,0.1,0,0.2,0c0,0,0.1,0,0.1,0.1V60.8z M11.2,56.9v-1.3h-0.7h-0.1l0.1,0.1v1.2H11.2z
			 M11.2,59.7v-1.3h-0.7v1.2h-0.1l0.1,0.1H11.2z M13.3,56.9v-1.2v-0.1h-0.7v1.3H13.3z M13.3,58.4h-0.7v1.3h0.7v-0.1V58.4z
			 M23.3,53.5l-1.2,0.6l-0.2-0.5h-2.2v0.6h2.4c0.2,0,0.3,0,0.4,0.1c0.1,0.1,0.1,0.3,0.2,0.5v9.4c0,0.5-0.2,0.9-0.5,1.1
			c-0.3,0.2-0.7,0.4-1.2,0.4c-0.2,0-0.3-0.1-0.5-0.1c-0.2-0.1-0.4-0.1-0.5-0.1l-0.2-1.8c0.2,0.1,0.3,0.2,0.5,0.2
			c0.2,0.1,0.3,0.1,0.5,0.1c0-0.1,0.1-0.2,0.1-0.2c0-0.1,0.1-0.2,0.1-0.2v-1.9h-1.5v3.6h-1.5v-3.6h-1.5v3.6h-1.6V54.9
			c0-0.2,0-0.4,0.1-0.5c0.1-0.1,0.3-0.1,0.5-0.1h2.4v-0.6h-2.9v-1.5h2.9v-1.1h1.5v1.1H21c-0.1-0.1-0.2-0.2-0.2-0.4
			c-0.1-0.1-0.2-0.2-0.2-0.4l1.2-0.7c0.3,0.4,0.5,0.9,0.8,1.3C22.8,52.5,23.1,53,23.3,53.5z M18.2,57.2v-1.3h-1.3h-0.1v1.3H18.2z
			 M18.2,60.1v-1.5h-1.5v1.5H18.2z M21.1,57.2v-1.3H21h-1.3v1.3H21.1z M21.1,60.1v-1.5h-1.5v1.5H21.1z"/>
		<path class="st3" d="M30.2,64.3h-2.3v-8.8c-0.9,0.8-1.9,1.4-3,1.8v-2.1c0.6-0.2,1.3-0.6,2-1.1c0.7-0.6,1.2-1.2,1.5-1.9h1.9V64.3z"
			/>
		<path class="st3" d="M41.6,62.2v2.2h-8.2c0.1-0.8,0.4-1.6,0.8-2.3c0.4-0.7,1.3-1.7,2.6-2.9c1.1-1,1.7-1.6,1.9-2
			c0.3-0.5,0.5-1,0.5-1.4c0-0.5-0.1-0.9-0.4-1.2c-0.3-0.3-0.7-0.4-1.2-0.4c-0.5,0-0.9,0.1-1.2,0.4c-0.3,0.3-0.5,0.8-0.5,1.5
			l-2.3-0.2c0.1-1.3,0.6-2.2,1.3-2.8c0.7-0.6,1.6-0.8,2.7-0.8c1.2,0,2.1,0.3,2.8,1c0.7,0.6,1,1.5,1,2.4c0,0.5-0.1,1.1-0.3,1.6
			c-0.2,0.5-0.5,1-0.9,1.6c-0.3,0.4-0.8,0.9-1.5,1.6c-0.7,0.7-1.2,1.1-1.4,1.3c-0.2,0.2-0.4,0.4-0.5,0.6H41.6z"/>
		<path class="st3" d="M51.2,58.8l-1.5,0.4l-0.1-0.7l-1.1,0.1v6.8h-1.5v-6.6L45,59.1c-0.1-0.3-0.1-0.5-0.2-0.8
			c-0.1-0.3-0.1-0.5-0.2-0.8l1.1-0.1c0.2-0.2,0.3-0.4,0.5-0.6c0.2-0.2,0.3-0.4,0.5-0.6c-0.4-0.4-0.8-0.8-1.2-1
			c-0.4-0.3-0.8-0.5-1.2-0.7l0.7-1.5c0.1,0,0.2,0.1,0.4,0.2c0.2,0.1,0.3,0.2,0.4,0.2c0.2-0.5,0.5-1,0.7-1.4c0.2-0.5,0.5-1,0.7-1.4
			l1.3,0.7c-0.3,0.5-0.6,1-0.9,1.5c-0.3,0.5-0.6,1-0.9,1.5c0.1,0,0.2,0.1,0.4,0.2c0.1,0.1,0.2,0.2,0.4,0.2c0.2-0.3,0.3-0.7,0.5-1
			c0.2-0.3,0.3-0.7,0.5-1l1.5,0.5c-0.2,0.6-0.5,1.2-1,1.9c-0.5,0.7-1,1.3-1.3,1.8l1.2-0.1c-0.1-0.1-0.1-0.2-0.1-0.4
			c0-0.1-0.1-0.2-0.1-0.4l1.3-0.5c0.2,0.5,0.4,1,0.5,1.5C50.8,57.7,51,58.2,51.2,58.8z M46.7,59.8c-0.1,0.8-0.3,1.6-0.4,2.4
			c-0.1,0.8-0.3,1.6-0.4,2.4l-1.3-0.4c0.1-0.6,0.3-1.4,0.4-2.3c0.2-0.9,0.3-1.7,0.3-2.3L46.7,59.8z M59.4,64.3l-1.2,1.1
			c-0.4-0.3-0.9-0.7-1.3-1c-0.4-0.4-0.9-0.8-1.2-1.2c-0.5,0.4-1,0.9-1.5,1.2c-0.5,0.3-1.1,0.6-1.8,1l-1.1-1.1
			c-0.1,0.1-0.1,0.2-0.2,0.4c-0.1,0.1-0.1,0.2-0.2,0.4l-1.6-0.4c0.2-0.3,0.3-0.6,0.4-1c0.2-0.4,0.3-0.7,0.4-1l-0.9,0.1l-0.6-3.2
			l1.5-0.4l0.4,2.4c0.4-1.2,0.7-2.4,0.9-3.7c0.2-1.2,0.3-2.4,0.3-3.7V53h-1.6v-1.6h7.3c0.1,0,0.2,0.1,0.4,0.2
			c0.1,0.1,0.2,0.3,0.2,0.4c0,0.2-0.2,0.8-0.4,1.6c-0.2,0.8-0.3,1.3-0.4,1.7h0.9l1,0.7c-0.1,1.2-0.4,2.3-0.8,3.3
			c-0.4,0.9-1,1.9-1.6,2.9c0.4,0.4,0.8,0.7,1.3,1C58.4,63.7,58.9,64,59.4,64.3z M54.6,62c-0.4-0.6-0.8-1.3-1-1.9
			c-0.3-0.6-0.5-1.3-0.7-2.1c0,0.7-0.2,1.8-0.6,3.1c-0.4,1.3-0.7,2.3-1,3.1c0.6-0.3,1.2-0.7,1.7-1C53.6,62.8,54.1,62.4,54.6,62z
			 M56.2,53.2c0-0.1-0.1-0.1-0.1-0.1c0,0-0.1,0-0.1,0h-2.7l-0.1,2.3h2.6L56.2,53.2z M57.4,56.9h-3.2c0.1,0.6,0.3,1.3,0.5,2
			c0.2,0.7,0.5,1.4,0.9,2c0.4-0.6,0.7-1.2,1-1.9C57,58.3,57.3,57.6,57.4,56.9z"/>
	</g>
</g>
</svg>
