<?xml version="1.0" encoding="utf-8"?>
<!-- Generator: Adobe Illustrator 21.1.0, SVG Export Plug-In . SVG Version: 6.00 Build 0)  -->
<svg version="1.1" id="Layer_1" xmlns="http://www.w3.org/2000/svg" xmlns:xlink="http://www.w3.org/1999/xlink" x="0px" y="0px"
	 viewBox="0 0 68 68" style="enable-background:new 0 0 68 68;" xml:space="preserve">
<style type="text/css">
	.st0{fill:#CF0A2C;}
	.st1{fill:#FFFFFF;}
	.st2{fill:none;stroke:#231F20;}
	.st3{fill:#231F20;}
</style>
<g>
	<g>
		<rect x="0.5" y="0.5" class="st0" width="67" height="67"/>
	</g>
	<g>
		<rect x="0.5" y="49.7" class="st1" width="67" height="17.7"/>
	</g>
	<g>
		<g>
			<polygon class="st1" points="65.1,7.3 61.4,7.3 61.4,3.5 55.5,3.5 55.5,7.3 51.8,7.3 51.8,13.1 55.5,13.1 55.5,16.9 61.4,16.9 
				61.4,13.1 65.1,13.1 			"/>
		</g>
		<g>
			<g>
				<path class="st1" d="M13.6,5.4c-0.1,1.9-1.2,6.2-8.9,6.2H3v6.5h9.2v26.7H21V4.9h-7.4L13.6,5.4z"/>
				<path class="st1" d="M46.8,23.3c2.5-1.7,3.9-4.4,3.9-7.8c0-5.1-4-10.7-12.8-10.7c-7.4,0-12.6,4.6-12.6,11.1
					c0,3.3,1.4,5.9,4.1,7.6c-5.3,3-5.3,7.9-5.3,9.8c0,5.7,3.7,12.3,14,12.3c11.1,0,14-8.6,14-13.1C52,28.2,50.5,25.4,46.8,23.3z
					 M38,20.6c-2.9,0-4.4-2.2-4.4-4.2c0-2.7,1.7-4.2,4.7-4.2c2.3,0,3.9,1.7,3.9,4.2C42.2,19,40.6,20.6,38,20.6z M37.9,27.5
					c4.9,0,5.1,4.6,5.1,5.5c0,1.9-1,5.5-4.9,5.5c-3.1,0-5.1-2.1-5.1-5.6C33,28.9,35.5,27.5,37.9,27.5z"/>
			</g>
		</g>
	</g>
	<g>
		<rect x="0.5" y="0.5" class="st2" width="67" height="67"/>
	</g>
	<g>
		<path class="st3" d="M16.5,60.3c0,0.7-0.3,1.2-0.7,1.6c-0.4,0.4-1,0.6-1.7,0.6l-1-0.1v2.8h-1.5V52.8c0-0.1,0-0.2,0-0.2
			c0,0,0.1,0,0.2,0h3.4l1.1,0.7l-1.1,3.3L15.2,57c0,0.1,0,0.1,0,0.2c0,0.1,0,0.1,0.1,0.2c0.3,0.4,0.6,0.8,0.8,1.3
			C16.3,59.3,16.5,59.8,16.5,60.3z M14.9,60.1c-0.1-0.6-0.3-1.2-0.7-1.7c-0.4-0.5-0.6-0.9-0.7-1.1v-0.4l1-2.9h-1.3
			c-0.1,0-0.1,0-0.1,0.1v6.8c0.1,0,0.3,0.1,0.4,0.1c0.1,0,0.3,0.1,0.4,0.1c0.3,0,0.5-0.1,0.7-0.3C14.9,60.6,14.9,60.3,14.9,60.1z
			 M24.7,64.4l-1.1,1.1c-1.3-0.9-2.4-1.8-3.1-2.8c-0.7-1-1.3-2.3-1.6-3.8h-0.8v4.6c0.3-0.1,0.7-0.2,1-0.3c0.3-0.1,0.7-0.2,1-0.3
			l0.3,1.5c-0.9,0.3-1.7,0.5-2.6,0.7c-0.9,0.1-1.7,0.3-2.6,0.3L15,64l1.6-0.2V52.9c0-0.1,0-0.3,0.1-0.3c0.1-0.1,0.2-0.1,0.4-0.1h6.2
			c0.1,0,0.3,0,0.3,0.1c0.1,0.1,0.1,0.2,0.1,0.3v5.6c0,0.1,0,0.3-0.1,0.3c-0.1,0.1-0.2,0.1-0.3,0.1h-2.8c0,0.3,0.1,0.7,0.2,1
			c0.1,0.4,0.3,0.7,0.4,1c0.4-0.3,0.7-0.6,1.1-0.8c0.4-0.3,0.7-0.6,1.1-0.8l0.9,1.2c-0.4,0.3-0.8,0.6-1.2,0.9
			c-0.4,0.3-0.8,0.6-1.2,0.8c0.4,0.5,0.8,0.9,1.3,1.2S24.1,64.1,24.7,64.4z M22.2,55v-0.8c0-0.1,0-0.2-0.1-0.2c0,0-0.1,0-0.2,0h-3.4
			c-0.1,0-0.3,0-0.3,0c-0.1,0-0.1,0.1-0.1,0.2V55H22.2z M22.2,57v-0.7h-4.2v1.1h3.8c0.1,0,0.2,0,0.2-0.1
			C22.2,57.3,22.2,57.2,22.2,57z"/>
		<path class="st3" d="M35.3,63.7c0,0.4-0.2,0.7-0.5,0.9c-0.3,0.2-0.7,0.3-1.1,0.3h-1.1l-0.1-1.7l0.8,0.2c0.1,0,0.2-0.1,0.3-0.2
			c0.1-0.1,0.2-0.2,0.2-0.3v-2.7l-0.1-0.1h-1.5v5h-1.6v-5h-1.6c-0.1,0-0.1,0-0.1,0.1v4.2h-1.5v-5.4c0-0.1,0-0.2,0.1-0.3
			c0.1,0,0.2-0.1,0.3-0.1h2.8v-1h-3.5v-1.5h3.5V55h-1.9c-0.1,0.1-0.2,0.3-0.4,0.5c-0.1,0.2-0.2,0.4-0.4,0.5l-1.3-0.7
			c0.4-0.5,0.8-1,1.1-1.5c0.3-0.5,0.5-1.1,0.6-1.6l1.5,0.4c-0.1,0.1-0.1,0.3-0.2,0.4c-0.1,0.1-0.1,0.3-0.2,0.4h1.2v-1.3h1.6v1.3h2.8
			V55h-2.8v1.2h3v1.5h-3v1H35c0.1,0,0.2,0,0.2,0.1c0.1,0.1,0.1,0.2,0.1,0.3V63.7z M37.5,62.2H36v-8.8h1.5V62.2z M40,64.2
			c0,0.3-0.2,0.6-0.5,0.8c-0.3,0.2-0.6,0.4-1,0.4c-0.3,0-0.7-0.1-1-0.1c-0.3,0-0.7-0.1-1-0.1v-1.6c0.1,0,0.4,0.1,0.6,0.2
			c0.2,0.1,0.4,0.1,0.6,0.2l0.4-0.1l0.2-0.3V52.4H40V64.2z"/>
		<path class="st3" d="M48.8,59.3l-1.3,0.3l-0.1-0.7l-1,0.1v6.3H45v-6.1l-1.9,0.3c-0.1-0.3-0.1-0.5-0.2-0.7
			c-0.1-0.3-0.1-0.5-0.2-0.7l1-0.1c0.1-0.2,0.3-0.4,0.5-0.6c0.1-0.2,0.3-0.4,0.5-0.6c-0.4-0.4-0.7-0.7-1.1-1
			c-0.4-0.3-0.7-0.5-1.1-0.6l0.7-1.3c0.1,0,0.2,0.1,0.3,0.2c0.1,0.1,0.3,0.1,0.3,0.2c0.2-0.4,0.4-0.9,0.7-1.3
			c0.2-0.4,0.4-0.9,0.7-1.3l1.2,0.7c-0.3,0.4-0.5,0.9-0.8,1.3c-0.3,0.4-0.5,0.9-0.8,1.3c0.1,0,0.2,0.1,0.3,0.2
			c0.1,0.1,0.2,0.1,0.3,0.2c0.1-0.3,0.3-0.6,0.4-1c0.1-0.3,0.3-0.6,0.4-1l1.3,0.4c-0.1,0.5-0.4,1.1-0.9,1.8
			c-0.5,0.7-0.9,1.2-1.2,1.7l1.1-0.1c-0.1-0.1-0.1-0.2-0.1-0.3c0-0.1-0.1-0.2-0.1-0.3l1.2-0.4c0.2,0.4,0.4,0.9,0.5,1.4
			C48.4,58.3,48.6,58.8,48.8,59.3z M44.6,60.3c-0.1,0.7-0.2,1.4-0.4,2.2c-0.1,0.7-0.2,1.4-0.4,2.2l-1.2-0.3c0.1-0.6,0.2-1.3,0.4-2.1
			c0.1-0.8,0.2-1.5,0.3-2.1L44.6,60.3z M56.3,64.4l-1.1,1c-0.4-0.3-0.8-0.6-1.2-1c-0.4-0.3-0.8-0.7-1.1-1.1
			c-0.4,0.4-0.9,0.8-1.4,1.1c-0.5,0.3-1,0.6-1.6,0.9l-1-1c-0.1,0.1-0.1,0.2-0.2,0.3c-0.1,0.1-0.1,0.2-0.2,0.3L47,64.8
			c0.1-0.3,0.3-0.6,0.4-0.9c0.1-0.3,0.3-0.6,0.4-0.9L47,63.1l-0.6-2.9l1.3-0.3l0.3,2.2c0.4-1.1,0.7-2.2,0.8-3.4
			c0.2-1.1,0.3-2.2,0.3-3.4V54h-1.5v-1.5h6.7c0.1,0,0.2,0.1,0.3,0.2c0.1,0.1,0.2,0.2,0.2,0.4c0,0.2-0.1,0.7-0.3,1.5
			c-0.1,0.7-0.3,1.2-0.3,1.6h0.8l0.9,0.7c-0.1,1.1-0.4,2.1-0.7,3c-0.4,0.9-0.9,1.8-1.5,2.7c0.4,0.3,0.8,0.7,1.2,1
			C55.4,63.8,55.8,64.1,56.3,64.4z M51.9,62.3c-0.4-0.6-0.7-1.2-1-1.8c-0.3-0.6-0.5-1.2-0.6-1.9c0,0.7-0.2,1.6-0.6,2.9
			c-0.3,1.2-0.6,2.2-0.9,2.9c0.6-0.3,1.1-0.6,1.6-1C51,63,51.5,62.7,51.9,62.3z M53.4,54.1c0-0.1-0.1-0.1-0.1-0.1c0,0-0.1,0-0.1,0
			h-2.5l-0.1,2.1h2.4L53.4,54.1z M54.5,57.6h-2.9c0.1,0.6,0.3,1.2,0.5,1.9c0.2,0.6,0.5,1.3,0.8,1.9c0.4-0.5,0.7-1.1,1-1.8
			C54.1,58.8,54.3,58.2,54.5,57.6z"/>
	</g>
</g>
</svg>
